<?xml version="1.0" encoding="UTF-8"?>
<!-- Generated by Pixelmator Pro 3.0.1 -->
<svg width="137" height="147" viewBox="0 0 137 147" xmlns="http://www.w3.org/2000/svg" xmlns:xlink="http://www.w3.org/1999/xlink">
    <g id="Group-copy">
        <g id="Group">
            <g id="g1">
                <path id="Path" fill="#000000" stroke="none" d="M 110.302002 45.492004 C 110.402008 45.591003 110.487 45.699005 110.55899 45.817993 C 110.584015 45.858002 113.040009 49.845993 116.631012 52.386002 C 120.737 55.292007 123.85199 56.209 123.881989 56.218002 C 124.019989 56.257004 124.153015 56.313995 124.28299 56.389999 C 125.019989 56.475006 125.894989 56.604996 126.808014 56.792999 C 128.059998 56.171005 129.053009 55.042999 129.290985 53.078003 C 129.557007 50.878006 127.57901 49.367004 127.161011 48.425995 C 126.828003 47.675003 127.130005 44.436005 124.497986 42.567993 C 121.746002 40.61499 118.80899 42.356995 117.924011 42.302002 C 116.933014 42.240005 114.278992 39.869995 111.105011 42.550995 C 110.712006 42.882996 110.417999 43.231003 110.169006 43.585007 C 110.244995 44.307007 110.28299 44.966995 110.302002 45.492004 Z"/>
            </g>
            <path id="path1" fill="#000000" stroke="none" d="M 71.266006 12.856995 C 71.266006 14.487 69.945007 15.807983 68.315002 15.807983 C 66.684998 15.807983 65.363998 14.487 65.363998 12.856995 C 65.363998 11.22699 66.684998 9.906006 68.315002 9.906006 C 69.945007 9.906006 71.266006 11.22699 71.266006 12.856995 Z"/>
            <g id="g2">
                <path id="path2" fill="#000000" stroke="none" d="M 19.326996 95.397003 L 19.244003 108.170013 C 19.244003 108.170013 13.063995 105.248993 13.063995 104.028015 C 13.063004 101.891006 19.326996 95.397003 19.326996 95.397003 L 19.326996 95.397003 Z M 20.427994 89.832993 C 20.427994 89.832993 10.932007 99.507004 10.932007 104.300995 C 10.932007 106.138 20.421997 110.286987 20.421997 110.286987 L 20.427994 89.832993 L 20.427994 89.832993 Z"/>
            </g>
            <path id="path3" fill="#000000" stroke="none" d="M 10.932007 78.604996 C 10.932007 78.604996 22.914001 87.791 23.447006 89.389008 C 23.979996 90.987 10.932007 104.300995 10.932007 104.300995 L 12.975998 81.595993 L 10.932007 78.604996 Z"/>
            <path id="path4" fill="#000000" stroke="none" d="M 10.932007 104.299988 C 10.932007 104.299988 19.231003 109.182007 20.296005 110.069 C 21.360992 110.957001 15.613998 112.390991 15.613998 112.390991 L 15.673996 108.60199 C 15.677994 108.355988 15.569 108.121002 15.378998 107.963989 L 10.932007 104.299988 Z"/>
            <g id="g3">
                <path id="path5" fill="#000000" stroke="none" d="M 117.302002 95.264008 C 117.302002 95.264008 124.233002 102.197006 124.087006 104.300995 C 124.001007 105.542999 117.385986 108.17099 117.385986 108.17099 L 117.302002 95.264008 L 117.302002 95.264008 Z M 116.201996 89.832993 L 116.201996 110.298004 C 116.201996 110.298004 125.102997 107.045013 125.697998 104.300995 C 126.613007 100.072006 116.201996 89.832993 116.201996 89.832993 L 116.201996 89.832993 Z"/>
            </g>
            <path id="path6" fill="#000000" stroke="none" d="M 125.696991 78.604996 C 125.696991 78.604996 113.713989 87.791 113.182007 89.389008 C 112.648987 90.987 125.696991 104.300995 125.696991 104.300995 L 123.653015 81.595993 L 125.696991 78.604996 Z"/>
            <path id="path7" fill="#000000" stroke="none" d="M 125.696991 104.299988 C 125.696991 104.299988 117.39801 109.182007 116.333008 110.069 C 115.268005 110.955994 121.015015 112.390991 121.015015 112.390991 L 120.949005 108.213013 L 125.696991 104.299988 Z"/>
            <path id="path8" fill="#000000" stroke="none" d="M 82.427994 13.700989 C 78.052994 9.067993 71.815002 11.963989 68.440994 14.632019 L 68.147995 14.632019 C 64.772995 11.964996 58.531998 9.072021 54.160995 13.700989 C 50.225006 17.867981 53.871994 24.126007 55.938004 26.992004 L 55.716995 26.992004 L 55.716995 32.671997 L 80.830002 32.671997 L 80.830002 26.992004 L 80.649994 26.992004 C 82.716995 24.126007 86.363007 17.867981 82.427994 13.700989 Z M 80.880005 15.162994 C 84.432007 18.924011 78.787003 25.994995 77.957001 26.990997 L 74.938004 26.990997 C 76.156998 25.110992 77.835007 21.958984 77.516998 19.208984 C 77.354996 17.806 76.714005 16.661011 75.612 15.806 C 74.613998 15.029999 73.617996 14.623993 72.675995 14.458008 C 75.147003 13.235992 78.386993 12.526001 80.880005 15.162994 Z M 55.707993 15.162994 C 58.194 12.531982 61.423004 13.231018 63.891006 14.449005 C 62.934006 14.609009 61.919998 15.016998 60.904007 15.807007 C 59.802002 16.661987 59.162003 17.807007 58.998993 19.210022 C 58.681 21.958984 60.358994 25.112 61.578003 26.992004 L 58.628998 26.992004 C 57.800003 25.997009 52.147003 18.934021 55.707993 15.162994 Z M 64.167007 26.992004 C 63.028 25.47998 60.824997 21.958984 61.115997 19.453003 C 61.212006 18.630005 61.570007 17.988007 62.210007 17.48999 C 64.130005 16 65.828003 16.477997 66.761002 16.971985 L 66.761002 26.992004 L 64.167007 26.992004 Z M 69.867996 16.914978 C 70.815002 16.447998 72.460999 16.054016 74.307007 17.489014 C 74.947998 17.987 75.306 18.628998 75.401001 19.451996 C 75.692001 21.958008 73.488998 25.479004 72.350006 26.990997 L 69.867996 26.990997 L 69.867996 16.914978 Z"/>
            <g id="g4">
                <path id="path9" fill="#000000" stroke="none" d="M 130.231995 64.653 C 130.867004 64.653 132.020996 64.404007 132.596008 62.738998 C 132.885986 61.901001 132.789001 61.074997 132.316986 60.352005 C 130.846008 58.098999 125.781006 57.356003 124.006012 57.162003 C 123.904999 57.087006 123.792999 57.022995 123.665009 56.987 C 123.632996 56.977997 120.424011 56.048996 116.170013 53.039001 C 112.416992 50.382996 109.902008 46.274994 109.877014 46.233994 C 109.785004 46.082001 109.656006 45.973999 109.514008 45.888 C 109.480011 44.302994 109.221985 39.587006 107.393005 37.752991 C 106.686005 37.042999 105.769012 36.785004 104.809998 37.028015 C 103.437988 37.376007 102.970993 38.181 102.820007 38.794983 C 102.203995 41.312012 106.178009 45.283005 107.665985 46.664001 C 106.21701 47.735992 102.727005 49.856995 99.832001 47.957993 C 98.537003 47.108994 97.830002 46.173996 97.731003 45.177994 C 97.576996 43.639999 98.891998 42.320999 98.901993 42.311005 C 99.261002 41.962006 99.268997 41.386993 98.921005 41.028015 C 98.570999 40.669006 97.996994 40.660004 97.636993 41.01001 C 97.557999 41.087006 95.692001 42.929993 95.923004 45.341003 C 96.074005 46.916 97.054001 48.307007 98.837997 49.475998 C 100.020004 50.251007 101.242004 50.546997 102.421005 50.546997 C 105.001007 50.546997 107.367004 49.130005 108.627991 48.212997 C 109.627991 49.664001 111.876007 52.612 114.938995 54.779007 C 118.596985 57.367004 121.510986 58.511002 122.614014 58.888 C 121.882996 60.440002 119.703003 65.912994 123.434998 69.380005 C 124.785004 70.634003 126.152008 71.266006 127.507996 71.266006 C 127.721008 71.266006 127.93399 71.25 128.14801 71.218994 C 130.542999 70.865005 131.885986 68.612 131.941986 68.516998 C 132.195007 68.084 132.049011 67.528 131.615997 67.276001 C 131.18399 67.022003 130.627014 67.169006 130.375 67.600998 C 130.365997 67.617004 129.401001 69.199997 127.881989 69.423996 C 126.891998 69.570007 125.808014 69.108994 124.670013 68.050995 C 122.196014 65.753006 123.312988 61.959 124.009003 60.237 C 125.610992 62.085999 128.196991 64.653 130.231995 64.653 Z M 104.536011 39.213013 C 104.554993 39.13501 104.613007 38.897003 105.243988 38.737 C 105.341003 38.713013 105.431 38.700989 105.515015 38.700989 C 105.656006 38.700989 105.877014 38.731995 106.141998 38.997986 C 106.993011 39.85199 107.455994 42.132004 107.647003 44.167999 C 105.799988 42.233994 104.312012 40.127014 104.536011 39.213013 Z M 130.796997 61.343994 C 130.962006 61.597 130.987 61.837006 130.881012 62.145996 C 130.640991 62.837997 130.364014 62.837997 130.230988 62.837997 C 129.140991 62.837997 127.15799 61.048004 125.532013 59.210007 C 127.721985 59.600998 130.128998 60.322006 130.796997 61.343994 Z"/>
                <g id="g5">
                    <path id="path10" fill="#000000" stroke="none" d="M 122.893005 69.964005 C 119.276001 66.604004 120.619995 61.656006 121.546997 59.343002 C 120.307007 58.854996 118.25 57.914993 115.774994 56.306 L 114.381012 74.744003 C 114.381012 74.744003 119.838013 72.753006 123.286011 74.955994 C 124.817993 75.934998 125.381989 77.007996 125.587006 77.735992 L 124.765991 71.324997 C 124.134003 70.985992 123.507996 70.535995 122.893005 69.964005 Z"/>
                    <path id="path11" fill="#000000" stroke="none" d="M 125.696991 78.604996 C 125.696991 78.604996 125.733002 78.257996 125.585999 77.735001 L 125.696991 78.604996 Z"/>
                </g>
            </g>
            <g id="g6">
                <path id="path12" fill="#000000" stroke="none" d="M 35.343002 60.847 C 35.378998 61.154007 35.399994 61.473999 35.399994 61.806 C 35.399994 63.869003 33.740005 65.542007 33.740005 65.542007 C 33.740005 65.542007 32.080002 63.869003 32.080002 61.806 C 32.080002 61.473999 32.100998 61.154007 32.136993 60.847 C 31.791 61.509003 31.578995 62.384003 31.578995 63.347 C 31.578995 65.410004 33.740005 67.082993 33.740005 67.082993 C 33.740005 67.082993 35.901001 65.410004 35.901001 63.347 C 35.901001 62.384003 35.688995 61.509003 35.343002 60.847 Z"/>
                <path id="path13" fill="#000000" stroke="none" d="M 47.919006 70.442993 C 47.955002 70.75 47.975998 71.070007 47.975998 71.401993 C 47.975998 73.464996 46.315994 75.138 46.315994 75.138 C 46.315994 75.138 44.656006 73.464996 44.656006 71.401993 C 44.656006 71.070007 44.677002 70.75 44.712997 70.442993 C 44.367004 71.104996 44.154999 71.979996 44.154999 72.942993 C 44.154999 75.005997 46.315994 76.679001 46.315994 76.679001 C 46.315994 76.679001 48.477005 75.005997 48.477005 72.942993 C 48.477005 71.981003 48.264999 71.106003 47.919006 70.442993 Z"/>
                <path id="path14" fill="#000000" stroke="none" d="M 59.479996 60.847 C 59.516006 61.154007 59.537003 61.473999 59.537003 61.806 C 59.537003 63.869003 57.876999 65.542007 57.876999 65.542007 C 57.876999 65.542007 56.216995 63.869003 56.216995 61.806 C 56.216995 61.473999 56.238007 61.154007 56.274002 60.847 C 55.927994 61.509003 55.716003 62.384003 55.716003 63.347 C 55.716003 65.410004 57.876999 67.082993 57.876999 67.082993 C 57.876999 67.082993 60.037994 65.410004 60.037994 63.347 C 60.037994 62.384003 59.826004 61.509003 59.479996 60.847 Z"/>
                <path id="path15" fill="#000000" stroke="none" d="M 83.070999 61.828995 C 83.106995 62.136002 83.128006 62.455994 83.128006 62.787994 C 83.128006 64.850998 81.468002 66.524002 81.468002 66.524002 C 81.468002 66.524002 79.807999 64.850998 79.807999 62.787994 C 79.807999 62.455994 79.828995 62.136002 79.865005 61.828995 C 79.518997 62.490997 79.307007 63.365997 79.307007 64.328995 C 79.307007 66.391998 81.468002 68.065002 81.468002 68.065002 C 81.468002 68.065002 83.628998 66.391998 83.628998 64.328995 C 83.630005 63.365997 83.417007 62.490997 83.070999 61.828995 Z"/>
                <path id="path16" fill="#000000" stroke="none" d="M 95.100998 72.408005 C 95.136993 72.714005 95.158005 73.035004 95.158005 73.367004 C 95.158005 75.429993 93.498001 77.102997 93.498001 77.102997 C 93.498001 77.102997 91.837997 75.429993 91.837997 73.367004 C 91.837997 73.035004 91.858994 72.714996 91.895004 72.408005 C 91.548996 73.070007 91.337006 73.945007 91.337006 74.908005 C 91.337006 76.970993 93.498001 78.643997 93.498001 78.643997 C 93.498001 78.643997 95.658997 76.970993 95.658997 74.908005 C 95.660004 73.945007 95.447006 73.070007 95.100998 72.408005 Z"/>
                <path id="path17" fill="#000000" stroke="none" d="M 106.662994 62.811005 C 106.699005 63.117996 106.720001 63.438004 106.720001 63.770004 C 106.720001 65.832993 105.059998 67.505997 105.059998 67.505997 C 105.059998 67.505997 103.399994 65.832993 103.399994 63.770004 C 103.399994 63.438004 103.42099 63.117996 103.457001 62.811005 C 103.110992 63.473007 102.899002 64.348007 102.899002 65.311005 C 102.899002 67.373993 105.059998 69.046997 105.059998 69.046997 C 105.059998 69.046997 107.221008 67.373993 107.221008 65.311005 C 107.221008 64.348007 107.007996 63.473007 106.662994 62.811005 Z"/>
            </g>
            <g id="g7">
                <path id="path18" fill="#000000" stroke="none" d="M 35.431 81.884995 C 35.466995 82.192001 35.488007 82.511993 35.488007 82.843994 C 35.488007 84.906998 33.828003 86.580002 33.828003 86.580002 C 33.828003 86.580002 32.167999 84.906998 32.167999 82.843994 C 32.167999 82.511993 32.188995 82.192001 32.225006 81.884995 C 31.878998 82.546997 31.667007 83.421997 31.667007 84.384995 C 31.667007 86.447998 33.828003 88.121002 33.828003 88.121002 C 33.828003 88.121002 35.988998 86.447998 35.988998 84.384995 C 35.988998 83.421997 35.776993 82.546997 35.431 81.884995 Z"/>
                <path id="path19" fill="#000000" stroke="none" d="M 48.007004 91.481003 C 48.042999 91.787994 48.063995 92.108002 48.063995 92.440002 C 48.063995 94.503006 46.404007 96.175995 46.404007 96.175995 C 46.404007 96.175995 44.744003 94.503006 44.744003 92.440002 C 44.744003 92.108002 44.764999 91.787994 44.800995 91.481003 C 44.455002 92.143005 44.242996 93.018005 44.242996 93.981003 C 44.242996 96.044006 46.404007 97.716995 46.404007 97.716995 C 46.404007 97.716995 48.565002 96.044006 48.565002 93.981003 C 48.565002 93.018005 48.352997 92.143997 48.007004 91.481003 Z"/>
                <path id="path20" fill="#000000" stroke="none" d="M 83.158997 82.867004 C 83.195007 83.173004 83.216003 83.494003 83.216003 83.826004 C 83.216003 85.889008 81.556 87.561996 81.556 87.561996 C 81.556 87.561996 79.895996 85.889008 79.895996 83.826004 C 79.895996 83.494003 79.917007 83.173996 79.953003 82.867004 C 79.606995 83.529007 79.395004 84.404007 79.395004 85.365997 C 79.395004 87.429001 81.556 89.102005 81.556 89.102005 C 81.556 89.102005 83.716995 87.429001 83.716995 85.365997 C 83.718002 84.404007 83.505005 83.529007 83.158997 82.867004 Z"/>
                <path id="path21" fill="#000000" stroke="none" d="M 106.751007 83.848999 C 106.786987 84.154999 106.808014 84.475998 106.808014 84.807999 C 106.808014 86.871002 105.14801 88.544006 105.14801 88.544006 C 105.14801 88.544006 103.488007 86.871002 103.488007 84.807999 C 103.488007 84.475998 103.509003 84.156006 103.545013 83.848999 C 103.199005 84.511002 102.987 85.386002 102.987 86.348007 C 102.987 88.410995 105.14801 90.084 105.14801 90.084 C 105.14801 90.084 107.30899 88.410995 107.30899 86.348007 C 107.30899 85.386002 107.096008 84.511002 106.751007 83.848999 Z"/>
            </g>
            <g id="g8">
                <path id="path22" fill="#000000" stroke="none" d="M 36.063995 104.661011 C 36.100006 104.96701 36.121002 105.287994 36.121002 105.619995 C 36.121002 107.683014 34.460999 109.355988 34.460999 109.355988 C 34.460999 109.355988 32.800995 107.683014 32.800995 105.619995 C 32.800995 105.287994 32.822006 104.967987 32.858002 104.661011 C 32.511993 105.322998 32.300003 106.197998 32.300003 107.160004 C 32.300003 109.222992 34.460999 110.895996 34.460999 110.895996 C 34.460999 110.895996 36.621994 109.222992 36.621994 107.160004 C 36.621994 106.197998 36.410004 105.322998 36.063995 104.661011 Z"/>
                <path id="path23" fill="#000000" stroke="none" d="M 48.639999 114.257996 C 48.675995 114.563995 48.697006 114.88501 48.697006 115.21701 C 48.697006 117.279999 47.037003 118.953003 47.037003 118.953003 C 47.037003 118.953003 45.376999 117.279999 45.376999 115.21701 C 45.376999 114.88501 45.397995 114.565002 45.434006 114.257996 C 45.087997 114.920013 44.876007 115.795013 44.876007 116.757996 C 44.876007 118.821014 47.037003 120.493988 47.037003 120.493988 C 47.037003 120.493988 49.197998 118.821014 49.197998 116.757996 C 49.197998 115.795013 48.985992 114.920013 48.639999 114.257996 Z"/>
                <path id="path24" fill="#000000" stroke="none" d="M 60.201004 104.661011 C 60.237 104.96701 60.257996 105.287994 60.257996 105.619995 C 60.257996 107.683014 58.598007 109.355988 58.598007 109.355988 C 58.598007 109.355988 56.938004 107.683014 56.938004 105.619995 C 56.938004 105.287994 56.959 104.967987 56.994995 104.661011 C 56.649002 105.322998 56.436996 106.197998 56.436996 107.160004 C 56.436996 109.222992 58.598007 110.895996 58.598007 110.895996 C 58.598007 110.895996 60.759003 109.222992 60.759003 107.160004 C 60.759003 106.197998 60.546997 105.322998 60.201004 104.661011 Z"/>
                <path id="path25" fill="#000000" stroke="none" d="M 72.231003 115.23999 C 72.266998 115.54599 72.287994 115.867004 72.287994 116.199005 C 72.287994 118.261993 70.628006 119.934998 70.628006 119.934998 C 70.628006 119.934998 68.968002 118.261993 68.968002 116.199005 C 68.968002 115.867004 68.988998 115.546997 69.024994 115.23999 C 68.679001 115.902008 68.466995 116.777008 68.466995 117.73999 C 68.466995 119.803009 70.628006 121.476013 70.628006 121.476013 C 70.628006 121.476013 72.789001 119.803009 72.789001 117.73999 C 72.789001 116.777008 72.576996 115.902008 72.231003 115.23999 Z"/>
                <path id="path26" fill="#000000" stroke="none" d="M 95.822006 114.257996 C 95.858002 114.563995 95.878998 114.88501 95.878998 115.21701 C 95.878998 117.279999 94.218994 118.953003 94.218994 118.953003 C 94.218994 118.953003 92.559006 117.279999 92.559006 115.21701 C 92.559006 114.88501 92.580002 114.565002 92.615997 114.257996 C 92.270004 114.920013 92.057999 115.795013 92.057999 116.757996 C 92.057999 118.821014 94.218994 120.493988 94.218994 120.493988 C 94.218994 120.493988 96.380005 118.821014 96.380005 116.757996 C 96.380005 115.795013 96.167999 114.920013 95.822006 114.257996 Z"/>
                <path id="path27" fill="#000000" stroke="none" d="M 107.384003 106.625 C 107.420013 106.931 107.44101 107.252014 107.44101 107.584015 C 107.44101 109.647003 105.781006 111.320007 105.781006 111.320007 C 105.781006 111.320007 104.121002 109.647003 104.121002 107.584015 C 104.121002 107.252014 104.141998 106.932007 104.178009 106.625 C 103.832001 107.286987 103.619995 108.161987 103.619995 109.125 C 103.619995 111.187988 105.781006 112.860992 105.781006 112.860992 C 105.781006 112.860992 107.941986 111.187988 107.941986 109.125 C 107.941986 108.161987 107.729004 107.287994 107.384003 106.625 Z"/>
            </g>
            <g id="g9">
                <path id="path28" fill="#000000" stroke="none" d="M 70.699005 11.257019 L 65.929993 11.257019 L 67.313004 9.708984 L 67.692001 4.312988 L 68.938004 4.312988 L 69.319 9.747986 Z"/>
                <path id="path29" fill="#000000" stroke="none" d="M 66.507996 5.395996 L 70.121002 5.395996 L 70.121002 7.003998 L 66.507996 7.003998 Z"/>
                <path id="path30" fill="#000000" stroke="none" d="M 69.052994 4.312988 L 67.576004 4.312988 C 67.337006 4.312988 67.141006 4.117004 67.141006 3.877991 L 67.141006 3.523987 C 67.141006 3.285004 67.337006 3.088989 67.576004 3.088989 L 69.052994 3.088989 C 69.292007 3.088989 69.488007 3.285004 69.488007 3.523987 L 69.488007 3.877991 C 69.488007 4.117981 69.292007 4.312988 69.052994 4.312988 Z"/>
                <path id="path31" fill="#000000" stroke="none" d="M 70.121002 6.971985 L 70.121002 5.427979 C 70.121002 5.192993 70.313004 5.001007 70.548004 5.001007 L 70.850006 5.001007 C 71.085007 5.001007 71.276993 5.192993 71.276993 5.427979 L 71.276993 6.971985 C 71.276993 7.207001 71.085007 7.398987 70.850006 7.398987 L 70.548004 7.398987 C 70.313004 7.398987 70.121002 7.207001 70.121002 6.971985 Z"/>
                <path id="path32" fill="#000000" stroke="none" d="M 65.352005 6.971985 L 65.352005 5.427979 C 65.352005 5.192993 65.544006 5.001007 65.779007 5.001007 L 66.080994 5.001007 C 66.315994 5.001007 66.507996 5.192993 66.507996 5.427979 L 66.507996 6.971985 C 66.507996 7.207001 66.315994 7.398987 66.080994 7.398987 L 65.779007 7.398987 C 65.544006 7.398987 65.352005 7.207001 65.352005 6.971985 Z"/>
            </g>
            <g id="g10">
                <path id="path33" fill="#000000" stroke="none" d="M 70.667007 18.268982 L 70.667007 26.192993 L 71.945999 26.192993 C 73.013 24.703003 74.470993 22.175995 74.608994 20.22699 C 73.925995 20.513 73.498993 20.820984 73.498993 20.820984 C 73.498993 20.820984 72.513 19.169006 70.667007 18.268982 Z"/>
                <path id="path34" fill="#000000" stroke="none" d="M 68.244003 26.966003 L 69.867996 26.966003 L 69.867996 17.950012 C 69.373001 17.794983 68.832993 17.697021 68.244003 17.697021 L 68.244003 26.966003 Z"/>
                <path id="path35" fill="#000000" stroke="none" d="M 77.535004 19.789978 C 76.755997 19.684021 76.022995 19.778992 75.401001 19.950012 C 75.391006 22.393005 73.438995 25.537994 72.367996 26.964996 L 74.953995 26.964996 C 76.087997 25.213989 77.584 22.382019 77.535004 19.789978 Z"/>
                <path id="path36" fill="#000000" stroke="none" d="M 78.619003 20.070984 C 78.529999 20.036011 78.442001 20.011993 78.352997 19.983002 C 78.332993 22.130005 77.393997 24.371002 76.358994 26.192993 L 77.576004 26.192993 C 78.169006 25.447998 79.529999 23.626007 80.419006 21.609009 C 80.042999 20.964996 79.477997 20.411011 78.619003 20.070984 Z"/>
                <path id="path37" fill="#000000" stroke="none" d="M 80.834 22.580017 C 79.787994 24.707001 78.386993 26.473022 77.977997 26.966003 L 80.667999 26.966003 C 80.701004 26.919983 80.738007 26.865997 80.772003 26.817993 C 80.908005 26.291016 81.343002 24.322021 80.834 22.580017 Z"/>
            </g>
            <g id="g11">
                <path id="path38" fill="#000000" stroke="none" d="M 62.947998 20.820007 C 62.947998 20.820007 62.550003 20.533997 61.908997 20.255981 C 62.061005 22.200989 63.511002 24.710999 64.572006 26.192017 L 65.962997 26.192017 L 65.962997 18.177979 C 63.996002 19.054993 62.947998 20.820007 62.947998 20.820007 Z"/>
                <path id="path39" fill="#000000" stroke="none" d="M 61.117004 19.971985 C 60.498993 19.792999 59.766006 19.687988 58.983002 19.78302 C 58.931 22.377014 60.429001 25.213013 61.563004 26.966003 L 64.149002 26.966003 C 63.080994 25.542999 61.138 22.411987 61.117004 19.971985 Z"/>
                <path id="path40" fill="#000000" stroke="none" d="M 60.158005 26.192993 C 59.119995 24.36499 58.177994 22.113007 58.164993 19.958984 C 58.052994 19.994019 57.940002 20.026978 57.826996 20.070984 C 57.026001 20.389008 56.483002 20.893005 56.106003 21.481995 C 56.992996 23.549988 58.403 25.432983 59.009003 26.192993 L 60.158005 26.192993 Z"/>
                <path id="path41" fill="#000000" stroke="none" d="M 55.662994 22.404999 C 55.151993 23.940002 55.425995 25.705017 55.604004 26.514008 C 55.712006 26.671021 55.819 26.824005 55.921005 26.966003 L 58.610001 26.966003 C 58.188995 26.460022 56.716995 24.610992 55.662994 22.404999 Z"/>
                <path id="path42" fill="#000000" stroke="none" d="M 68.203003 17.697021 C 67.684998 17.697021 67.207001 17.776001 66.761993 17.898987 L 66.761993 26.966003 L 68.203003 26.966003 L 68.203003 17.697021 Z"/>
            </g>
            <g id="g12">
                <path id="path43" fill="#000000" stroke="none" d="M 125.216003 67.464005 C 125.403992 67.639008 125.587006 67.787003 125.768005 67.923004 C 125.502014 66.029007 125.158997 64.095001 124.789001 62.244995 C 124.63501 62.089996 124.483002 61.942993 124.325989 61.776001 C 123.843994 63.466995 123.557007 65.923996 125.216003 67.464005 Z"/>
                <path id="path44" fill="#000000" stroke="none" d="M 124.576996 71.225998 C 124.931 74.304001 125.039001 76.832001 124.641998 77.867996 C 123.472992 80.919998 114.662994 86.707001 114.662994 86.707001 L 118.959015 58.158997 C 118.640991 57.994995 118.30899 57.817993 117.962006 57.625 L 113.182007 89.389008 C 113.182007 89.389008 124.217987 82.460999 125.696991 78.604996 C 126.291992 77.050995 126.389008 74.641998 126.196991 71.891006 C 125.653992 71.753006 125.113007 71.533997 124.576996 71.225998 Z"/>
            </g>
            <path id="path45" fill="#000000" stroke="none" d="M 121.54599 59.343002 C 121.442993 59.302994 121.322998 59.251999 121.209015 59.205002 L 121.346008 59.871994 C 121.414001 59.684006 121.480988 59.505997 121.54599 59.343002 Z"/>
            <g id="g13">
                <path id="path46" fill="#000000" stroke="none" d="M 100.270996 47.287994 C 100.908997 47.705994 101.634003 47.917999 102.425995 47.917999 C 103.701996 47.917999 104.968994 47.388 105.955994 46.824997 C 103.455994 46.457001 100.882004 45.955002 98.576004 45.276001 C 98.720001 45.959 99.274994 46.634995 100.270996 47.287994 Z"/>
                <path id="path47" fill="#000000" stroke="none" d="M 108.433014 49.315002 C 107.037994 50.222 104.825989 51.343994 102.421997 51.343994 C 100.970001 51.343994 99.615997 50.940002 98.401001 50.141998 C 96.404999 48.834 95.304001 47.244003 95.128998 45.414993 C 95.082993 44.929993 95.123993 44.477005 95.197998 44.042999 C 87.690002 40.742981 82.981995 35.463013 81.395996 33.471008 L 80.830002 33.471008 L 64.953003 33.471008 C 65.281006 34.132019 65.901993 35.182983 67.078003 36.600006 C 70.296997 40.477997 74.037003 41.376007 74.037003 41.376007 C 74.037003 41.376007 70.257996 40.856995 66.75 37.487 C 65.141006 35.940979 63.944 34.380981 63.296005 33.471008 L 61.634995 33.471008 C 62.048004 34.376007 62.957993 36.026978 64.865997 38.325012 C 69.498993 43.906006 74.882004 45.199005 74.882004 45.199005 C 74.882004 45.199005 69.442001 44.453003 64.393997 39.60199 C 61.863007 37.169983 60.026993 34.699005 59.175003 33.471008 L 56.264008 33.471008 C 58.263 36.697021 63.057999 43.731995 70.843002 50.988007 L 70.832993 50.998993 C 75.188004 54.302994 80.492004 57.074005 86.779007 58.233994 C 100.209 60.712006 109.178986 57.565994 113.893005 54.988007 C 111.442993 53.119995 109.553009 50.848999 108.433014 49.315002 Z"/>
            </g>
            <g id="g14">
                <path id="path48" fill="#000000" stroke="none" d="M 38.990997 41.007996 C 38.630005 40.65802 38.056 40.666016 37.707001 41.026001 C 37.358994 41.38501 37.367004 41.960022 37.725998 42.309006 C 37.740005 42.322006 39.044998 43.636993 38.897995 45.166 C 38.802994 46.164993 38.095001 47.104004 36.796005 47.955994 C 33.910004 49.847 30.417007 47.731003 28.964005 46.660004 C 30.453003 45.278 34.425003 41.309021 33.807999 38.792999 C 33.658005 38.177979 33.190002 37.372986 31.817993 37.024994 C 30.858994 36.781982 29.944 37.041016 29.235001 37.75 C 27.408005 39.583984 27.149002 44.298004 27.115005 45.884003 C 26.972 45.970001 26.843002 46.080002 26.751007 46.231995 C 26.725998 46.272995 24.223999 50.371994 20.457001 53.037003 C 16.203995 56.046997 12.994995 56.975998 12.962997 56.985001 C 12.835007 57.020996 12.723007 57.085007 12.621994 57.160004 C 10.848007 57.354004 5.781998 58.097 4.311996 60.350006 C 3.839996 61.072998 3.742996 61.899002 4.033005 62.737 C 4.608002 64.401993 5.761002 64.651001 6.395996 64.651001 C 6.395996 64.651001 6.395996 64.651001 6.397003 64.651001 C 8.431 64.651001 11.016998 62.082993 12.617004 60.233002 C 13.313004 61.955002 14.431 65.748993 11.957001 68.046997 C 10.822998 69.100998 9.75 69.563004 8.755005 69.421997 C 7.225006 69.203003 6.259003 67.610001 6.251007 67.597 C 5.998993 67.164993 5.442001 67.018005 5.009995 67.272003 C 4.576996 67.524994 4.432007 68.080994 4.684006 68.513 C 4.740005 68.608994 6.082993 70.862 8.477997 71.214996 C 8.690994 71.246002 8.904007 71.261993 9.117996 71.261993 C 10.473999 71.261993 11.841003 70.630005 13.190994 69.376007 C 16.923004 65.908997 14.742004 60.434998 14.011002 58.884003 C 15.113998 58.507004 18.029007 57.363007 21.686005 54.774994 C 24.75 52.608002 26.996994 49.658997 27.996994 48.209 C 29.257996 49.126007 31.623993 50.542999 34.205002 50.542999 C 35.382996 50.542999 36.606995 50.246994 37.787994 49.472 C 39.572006 48.302994 40.552002 46.912003 40.701996 45.337006 C 40.936005 42.927994 39.070007 41.085999 38.990997 41.007996 Z M 6.397995 62.839005 C 6.264999 62.839005 5.987 62.839005 5.748001 62.147003 C 5.641998 61.837997 5.667007 61.598007 5.830994 61.345001 C 6.498001 60.324005 8.906006 59.604004 11.095993 59.212997 C 9.470001 61.048996 7.488007 62.839005 6.397995 62.839005 Z M 30.487 38.997986 C 30.751999 38.731995 30.972 38.700989 31.113007 38.700989 C 31.197006 38.700989 31.287994 38.713013 31.382996 38.737 C 32.014999 38.897003 32.074005 39.13501 32.093002 39.213013 C 32.317001 40.125 30.828003 42.233002 28.981003 44.167007 C 29.171005 42.132996 29.634003 39.852997 30.487 38.997986 Z"/>
                <g id="g15">
                    <path id="path49" fill="#000000" stroke="none" d="M 10.979004 78.240997 C 10.932999 78.470001 10.932999 78.604996 10.932999 78.604996 L 10.979004 78.240997 Z"/>
                    <path id="path50" fill="#000000" stroke="none" d="M 15.082993 59.343002 C 16.009995 61.656006 17.354004 66.604004 13.737 69.964005 C 13.121002 70.535995 12.494995 70.985992 11.865005 71.324997 L 10.979004 78.240997 C 11.110001 77.582001 11.619003 76.126999 13.595001 74.744003 C 16.257996 72.880005 22.248993 74.744003 22.248993 74.744003 L 20.854996 56.306 C 18.380005 57.914993 16.322998 58.854996 15.082993 59.343002 Z"/>
                </g>
            </g>
            <g id="g16">
                <path id="path51" fill="#000000" stroke="none" d="M 17.669998 58.158997 L 21.966003 86.707001 C 21.966003 86.707001 13.356003 80.988007 12.25 77.912003 C 12.020996 77.276001 12.263 74.404999 12.694 70.811005 C 11.947998 71.337997 11.192001 71.697998 10.431 71.891006 C 10.238998 74.641998 10.335007 77.050995 10.931 78.604996 C 12.408997 82.460999 23.445999 89.389008 23.445999 89.389008 L 18.666 57.625 C 18.320007 57.817993 17.988007 57.994995 17.669998 58.158997 Z"/>
                <path id="path52" fill="#000000" stroke="none" d="M 11.414001 67.464005 C 13.072006 65.923996 12.785004 63.466995 12.304001 61.776001 C 12.147003 61.942993 11.994995 62.089005 11.841003 62.244995 C 11.470993 64.095001 11.126999 66.029999 10.862 67.923996 C 11.042999 67.787994 11.225998 67.639008 11.414001 67.464005 Z"/>
            </g>
            <g id="g17">
                <path id="path53" fill="#000000" stroke="none" d="M 24.257996 53.723007 C 23.908997 54.039993 23.548996 54.354004 23.169998 54.658005 C 25.130997 54.929001 27.343994 55.125 29.671997 55.125 C 35.451996 55.125 40.311005 53.923996 44.113998 51.557007 C 52.197998 46.524002 54.662994 38.539001 55.716995 34.686005 C 55.716995 34.686005 56.548996 33.997986 57.074005 33.737 L 68.315002 33.737 L 80.007004 33.737 C 80.572998 36.669006 83.031006 45.651001 92.516006 51.557007 C 96.319 53.925003 101.177994 55.125 106.958008 55.125 C 109.286011 55.125 111.497986 54.929001 113.459015 54.658005 C 113.079987 54.354004 112.720001 54.039993 112.371002 53.723007 C 110.694 53.923996 108.860992 54.059998 106.958008 54.059998 C 102.315002 54.059998 97.261993 53.257004 93.078995 50.651993 C 83.910004 44.942993 81.561996 36.141998 81.044998 33.470001 L 80.830994 33.470001 L 55.718002 33.470001 L 55.143005 33.470001 L 55.074997 33.565002 C 54.320999 36.830994 52.044998 45.363998 43.552002 50.651993 C 39.369003 53.255997 34.315994 54.059998 29.673004 54.059998 C 27.768005 54.061005 25.936005 53.925003 24.257996 53.723007 Z"/>
                <path id="path54" fill="#000000" stroke="none" d="M 15.276001 59.854004 L 15.408997 59.209 C 15.298996 59.253998 15.182007 59.302994 15.082001 59.343002 C 15.145996 59.501007 15.210999 59.673004 15.276001 59.854004 Z"/>
            </g>
            <g id="g18">
                <path id="path55" fill="#000000" stroke="none" d="M 34.212006 47.914993 C 35.001999 47.914993 35.723999 47.703995 36.358994 47.289001 C 37.367996 46.626999 37.925995 45.942001 38.061005 45.251007 C 35.753998 45.936996 33.173996 46.442993 30.664001 46.815994 C 31.654999 47.380997 32.929993 47.914993 34.212006 47.914993 Z"/>
            </g>
            <path id="path56" fill="#000000" stroke="none" d="M 55.074005 33.565979 C 53.427002 35.614014 48.779007 40.755005 41.425995 44.009003 C 41.460999 44.207993 41.488998 44.406998 41.501007 44.617004 C 41.520996 44.875 41.526993 45.139008 41.501007 45.414993 C 41.326004 47.244003 40.225006 48.834 38.229004 50.141998 C 37.013 50.938995 35.660004 51.343994 34.207993 51.343994 C 31.804001 51.343994 29.591995 50.222 28.195999 49.315002 C 26.987 50.970001 24.889999 53.490997 22.149994 55.429993 C 22.014008 55.526001 21.884995 55.610001 21.751007 55.701996 C 26.169006 57.867004 35.429001 60.880005 49.766998 58.235001 C 57.039001 56.893005 63.003006 53.401001 67.694 49.414993 C 60.889008 42.585999 56.729996 36.294983 55.074005 33.565979 Z"/>
            <g id="g19">
                <path id="path57" fill="#000000" stroke="none" d="M 9.820007 56.792999 C 10.733002 56.604004 11.608994 56.475006 12.345001 56.389999 C 12.475006 56.313995 12.608002 56.257996 12.744995 56.218994 C 12.776001 56.210007 15.891006 55.292999 19.996002 52.386993 C 23.597 49.839005 26.044006 45.858994 26.067001 45.822998 C 26.139999 45.701996 26.225998 45.591995 26.328003 45.492004 C 26.347 44.966995 26.384995 44.307999 26.460007 43.587006 C 26.210999 43.233002 25.917007 42.884003 25.524002 42.552002 C 22.350006 39.871002 19.695999 42.242004 18.705002 42.302994 C 17.820007 42.358002 14.882004 40.617004 12.130997 42.569 C 9.498993 44.436996 9.802002 47.675995 9.468002 48.427002 C 9.050003 49.367004 7.072006 50.878998 7.337997 53.078995 C 7.574997 55.042999 8.567993 56.171005 9.820007 56.792999 Z"/>
            </g>
        </g>
        <g id="g20">
            <g id="g21">
                <g id="g22">
                    <path id="path58" fill="#000000" stroke="none" d="M 25.020996 143.907013 C 25.257004 147.894012 13.427002 141.730988 11.490997 144.588013 C 11.490997 144.588013 11.822006 143.028992 13.710999 143.14801 C 18.283997 143.43399 19.755997 142.533997 19.755997 142.533997 C 19.755997 142.533997 17.453003 142.675995 15.529007 141.117004 C 13.664001 139.605988 11.302002 140.596985 11.302002 140.596985 C 12.225006 139.394989 14.203995 139.035004 16.873993 140.644012 C 18.716003 141.753998 24.796005 141.890015 25.020004 139.096985 C 25.020996 139.097992 24.960007 142.875 25.020996 143.907013 Z"/>
                </g>
            </g>
            <g id="g23">
                <g id="g24">
                    <path id="path59" fill="#000000" stroke="none" d="M 18.268005 132.316986 C 18.268005 132.273987 18.268005 132.391998 18.268005 132.609985 C 18.268005 132.566986 18.281006 132.531006 18.287003 132.490997 C 18.283997 132.432007 18.268005 132.380005 18.268005 132.316986 Z"/>
                    <path id="path60" fill="#000000" stroke="none" d="M 23.847 136.592987 C 20.990005 136.27301 18.431 136.118988 18.283997 137.313995 C 18.455994 141.93399 25.020996 139.174011 25.020996 144.09201 C 25.020996 144.09201 25.205002 140.596985 24.968994 138.212006 C 24.895996 137.47699 24.460007 136.980988 23.847 136.592987 Z"/>
                </g>
                <path id="path61" fill="#000000" stroke="none" d="M 20.466995 132.145996 C 21.610992 132.145996 23.082001 132.326996 24.639999 132.518005 C 26.227005 132.713013 27.867004 132.915009 29.181 132.915009 C 29.613998 132.915009 30.550003 132.915009 31.279007 132.608002 L 31.279007 136.040009 C 31.279007 136.526001 30.072006 136.598999 29.352997 136.598999 C 28.158005 136.598999 26.595001 136.414001 25.082001 136.235992 C 23.541 136.053986 21.947998 135.865997 20.692993 135.865997 C 19.850998 135.865997 19.220993 135.950989 18.764999 136.125 L 18.764999 132.610992 C 18.764999 132.320007 19.401001 132.145996 20.466995 132.145996 L 20.466995 132.145996 Z M 31.774994 131.230988 C 31.774994 132.136993 30.710999 132.419006 29.179993 132.419006 C 26.651993 132.419006 22.850998 131.649994 20.466995 131.649994 C 19.151993 131.649994 18.268005 131.884003 18.268005 132.610992 L 18.268005 137.420013 C 18.268005 136.615997 19.253006 136.363007 20.692001 136.363007 C 23.141998 136.363007 26.904007 137.096985 29.352005 137.096985 C 30.789001 137.096985 31.774002 136.843994 31.774002 136.040985 C 31.774994 135.006989 31.774994 131.230988 31.774994 131.230988 L 31.774994 131.230988 Z"/>
            </g>
            <g id="g25">
                <path id="path62" fill="#000000" stroke="none" d="M 37.554001 120.595001 C 38.261993 120.578003 38.973007 120.570007 39.682999 120.571014 C 38.651993 120.028015 37.649994 119.442993 36.705994 118.782013 C 36.298004 118.496002 35.699997 118.423004 33.235001 118.158997 C 23.718002 117.806 16.266998 114.567993 17.110001 113.126007 C 17.962006 111.669006 20.231003 110.638 20.231003 110.638 L 19.386993 109.127991 L 12.046997 103.794006 L 14.078995 81.229996 L 14.117996 80.794006 L 13.839996 80.457001 L 11.585007 77.735001 L 13.072998 70.529007 C 12.819 70.727997 12.563995 70.904999 12.307007 71.065994 L 10.932007 78.604996 L 13.018005 81.134995 L 10.932007 104.300995 L 18.761002 109.990997 L 15.613998 112.391998 C 15.613998 118.769012 35.203003 119.032013 36.095001 119.656006 C 36.567993 119.987 37.059006 120.294006 37.554001 120.595001 Z"/>
                <path id="path63" fill="#000000" stroke="none" d="M 39.619003 120.567993 L 39.619003 121.065002 L 39.619995 121.065002 C 49.110001 121.065002 54.229996 122.561005 54.229996 123.968994 L 54.229996 127.084991 C 51.563995 125.110992 44.212997 124.860992 40.667999 124.860992 C 36.332001 124.860992 31.897003 125.205994 28.498993 125.808014 C 25.731003 126.298004 24.218994 126.859009 23.393997 127.368988 L 23.393997 123.968994 C 23.393997 122.596008 30.057007 121.06601 39.617996 121.065002 L 39.619003 120.567993 L 39.619003 120.567993 Z M 39.617004 120.567993 C 31.401001 120.567993 22.895996 121.786011 22.895996 123.967987 C 22.895996 125.252014 22.895996 128.777008 22.895996 128.777008 C 22.895996 126.721008 32.141006 125.355988 40.667007 125.355988 C 47.959 125.355988 54.725998 126.355988 54.725998 128.777008 C 54.725998 128.777008 54.725998 124.821014 54.725998 123.967987 C 54.725998 121.631989 47.298004 120.567993 39.617004 120.567993 L 39.617004 120.567993 Z"/>
            </g>
            <g id="g26">
                <g id="g27">
                    <path id="path64" fill="#000000" stroke="none" d="M 110.64801 143.907013 C 110.411987 147.894012 122.242004 141.730988 124.178009 144.588013 C 124.178009 144.588013 123.846985 143.028992 121.958008 143.14801 C 117.38501 143.43399 115.912994 142.533997 115.912994 142.533997 C 115.912994 142.533997 118.216003 142.675995 120.140015 141.117004 C 122.005005 139.605988 124.367004 140.596985 124.367004 140.596985 C 123.444 139.394989 121.464996 139.035004 118.794006 140.644012 C 116.951996 141.753998 110.872009 141.890015 110.64801 139.096985 C 110.64801 139.097992 110.709015 142.875 110.64801 143.907013 Z"/>
                </g>
            </g>
            <g id="g28">
                <g id="g29">
                    <path id="path65" fill="#000000" stroke="none" d="M 111.821991 136.592987 C 111.209015 136.980988 110.77301 137.47699 110.700012 138.212006 C 110.463989 140.596985 110.64801 144.09201 110.64801 144.09201 C 110.64801 139.174011 117.213013 141.93399 117.38501 137.313995 C 117.238007 136.119995 114.679993 136.27301 111.821991 136.592987 Z"/>
                    <path id="path66" fill="#000000" stroke="none" d="M 117.381989 132.492004 C 117.388 132.532013 117.401001 132.567993 117.401001 132.610992 C 117.401001 132.393005 117.401001 132.274994 117.401001 132.317993 C 117.401001 132.380005 117.385986 132.432007 117.381989 132.492004 Z"/>
                </g>
                <path id="path67" fill="#000000" stroke="none" d="M 115.201996 132.145996 C 116.268005 132.145996 116.903992 132.320007 116.903992 132.609985 L 116.903992 136.127014 C 116.223999 135.865997 115.375 135.865997 114.976013 135.865997 C 113.721985 135.865997 112.127991 136.053986 110.587006 136.235992 C 109.075012 136.415009 107.510986 136.598999 106.316986 136.598999 C 105.597992 136.598999 104.390991 136.526001 104.390991 136.040009 L 104.390991 132.608002 C 105.119995 132.915009 106.054993 132.915009 106.489014 132.915009 C 107.802002 132.915009 109.442993 132.713013 111.028992 132.518005 C 112.587006 132.326996 114.05899 132.145996 115.201996 132.145996 L 115.201996 132.145996 Z M 103.894989 131.230988 C 103.894989 131.230988 103.894989 135.006989 103.894989 136.040009 C 103.894989 136.842987 104.880005 137.096008 106.316986 137.096008 C 108.765015 137.096008 112.527008 136.362 114.97699 136.362 C 116.415985 136.362 117.401001 136.61499 117.401001 137.419006 L 117.401001 132.609985 C 117.401001 131.882996 116.516998 131.648987 115.201996 131.648987 C 112.817993 131.648987 109.016998 132.417999 106.489014 132.417999 C 104.958008 132.419006 103.894989 132.136993 103.894989 131.230988 L 103.894989 131.230988 Z"/>
            </g>
            <g id="g30">
                <g id="g31">
                    <path id="path68" fill="#000000" stroke="none" d="M 80.942993 125.200989 C 77.153 125.682007 73.841003 125.786011 71.744003 125.786011 C 69.682007 125.786011 68.404007 125.695007 68.391006 125.694 L 68.313004 125.687988 L 68.235992 125.694 C 68.223007 125.695007 66.947006 125.786011 64.882996 125.786011 C 62.612 125.786011 58.912003 125.661011 54.723999 125.069 C 54.723999 125.403992 54.723999 125.778015 54.723999 126.156006 C 58.763 126.713989 62.395004 126.851013 64.882996 126.851013 C 67.016998 126.851013 68.313004 126.756012 68.313004 126.756012 C 68.313004 126.756012 69.608994 126.851013 71.742996 126.851013 C 74.031998 126.851013 77.289001 126.738007 80.942001 126.286011 C 80.942993 125.911987 80.942993 125.540985 80.942993 125.200989 Z"/>
                    <path id="path69" fill="#000000" stroke="none" d="M 123.612 81.134003 L 125.697998 78.604004 L 124.322998 71.065002 C 124.056 70.897003 123.789001 70.712997 123.524994 70.503006 L 125.096985 78.177002 L 122.790009 80.455994 L 122.511993 80.792999 L 122.550995 81.229004 L 124.963989 104.139008 L 117.243011 109.127014 L 117.352997 111.195007 C 117.352997 111.195007 118.860992 111.677002 119.432007 112.243988 C 122.083008 114.872986 110.38501 117.618988 103.394012 118.158997 C 100.929001 118.423004 100.332001 118.496002 99.923004 118.782013 C 98.977997 119.442993 97.973999 120.028992 96.942001 120.572998 C 97.641006 120.580994 98.337006 120.598999 99.029999 120.623993 C 99.541 120.313995 100.046005 119.996002 100.533997 119.654999 C 101.425995 119.031006 121.015015 118.766998 121.015015 112.390991 L 117.868011 109.98999 L 125.696991 104.299988 L 123.612 81.134003 Z"/>
                </g>
                <path id="path70" fill="#000000" stroke="none" d="M 96.052002 121.065002 C 105.613007 121.065002 112.276001 122.595001 112.276001 123.968994 L 112.276001 127.397003 C 109.067993 125.364014 98.964005 124.860992 95.001999 124.860992 C 91.457001 124.860992 84.106003 125.110992 81.440002 127.084991 L 81.440002 123.968994 C 81.440002 122.561005 86.561005 121.065002 96.052002 121.065002 L 96.052002 121.065002 Z M 96.052002 120.567993 C 88.371002 120.567993 80.942993 121.631989 80.942993 123.967987 C 80.942993 124.821014 80.942993 128.777008 80.942993 128.777008 C 80.942993 126.355988 87.710007 125.355988 95.001999 125.355988 C 103.528015 125.355988 112.77301 126.721008 112.77301 128.777008 C 112.77301 128.777008 112.77301 125.252014 112.77301 123.967987 C 112.77301 121.786987 104.268005 120.567993 96.052002 120.567993 L 96.052002 120.567993 Z"/>
            </g>
            <path id="path71" fill="#000000" stroke="none" d="M 46.343994 132.122986 C 50.220993 134.308014 64.417007 134.828003 70.404999 134.828003 C 76.582993 134.828003 86.237 134.47699 89.335999 132.407013 L 89.335999 135.718994 C 89.335999 136.924988 83.011993 138.622009 68.953995 138.622009 C 54.945999 138.622009 46.343994 136.931 46.343994 135.718994 L 46.343994 132.122986 L 46.343994 132.122986 Z M 89.834 130.911011 C 89.834 133.332001 80.483002 134.332001 70.406006 134.332001 C 58.623993 134.332001 45.848007 132.96701 45.848007 130.911011 C 45.848007 130.911011 45.848007 134.436005 45.848007 135.720001 C 45.848007 137.902008 57.600998 139.119995 68.955002 139.119995 C 79.569 139.119995 89.834 138.056 89.834 135.720001 C 89.834 134.865997 89.834 130.911011 89.834 130.911011 L 89.834 130.911011 Z"/>
        </g>
        <g id="g32">
            <path id="path72" fill="#000000" stroke="none" d="M 47.835999 66.481995 L 47.835999 98.084 C 47.835999 108.212006 56.046997 116.423004 66.175003 116.423004 L 75.223007 116.423004 C 85.350998 116.423004 93.561996 108.212006 93.561996 98.084 L 93.561996 66.481995 L 47.835999 66.481995 Z M 91.869995 98.274002 C 91.869995 107.480011 84.406998 114.941986 75.201996 114.941986 L 70.699005 114.941986 L 70.699005 91.451996 L 49.098007 91.451996 L 49.098007 67.994995 L 70.699005 67.994995 L 70.699005 91.451996 L 91.869995 91.451996 L 91.869995 98.274002 Z"/>
            <g id="g33">
                <path id="path73" fill="#000000" stroke="none" d="M 59.899002 72.483994 L 59.899002 86.964005 L 58.554001 84.983994 C 58.554001 84.983994 59.227005 82.505997 59.227005 81.656998 C 59.227005 80.807007 57.279999 77.061005 57.279999 76.069 C 57.279007 75.001999 59.899002 72.483994 59.899002 72.483994 Z"/>
                <path id="path74" fill="#000000" stroke="none" d="M 56.996002 82.011002 L 59.899002 82.011002 L 59.899002 81.160995 L 56.996002 81.160995 C 56.761002 81.160995 56.570999 81.350998 56.570999 81.585999 L 56.570999 81.585999 C 56.570999 81.820999 56.761002 82.011002 56.996002 82.011002 Z"/>
                <path id="path75" fill="#000000" stroke="none" d="M 56.216995 85.294006 C 56.216995 85.294006 58.235001 84.337997 58.235001 81.585999 C 58.235001 78.843002 56.871994 76.505997 54.951996 76.505997 C 53.386002 76.505997 52.748001 77.453003 52.748001 78.179001 C 52.748001 79.505997 54.022003 80.091003 54.022003 80.091003 C 54.022003 80.091003 53.473007 78.578003 54.897995 78.578003 C 56.216995 78.578003 57.279007 79.959 57.279007 81.710999 C 57.279007 83.781006 56.216995 85.294006 56.216995 85.294006 Z"/>
                <path id="path76" fill="#000000" stroke="none" d="M 59.899002 72.483994 L 59.899002 86.964005 L 61.244003 84.983994 C 61.244003 84.983994 60.570999 82.505997 60.570999 81.656998 C 60.570999 80.807007 62.518005 77.061005 62.518005 76.069 C 62.518005 75.001999 59.899002 72.483994 59.899002 72.483994 Z"/>
                <path id="path77" fill="#000000" stroke="none" d="M 62.800995 82.011002 L 59.897995 82.011002 L 59.897995 81.160995 L 62.800995 81.160995 C 63.035004 81.160995 63.225998 81.350998 63.225998 81.585999 L 63.225998 81.585999 C 63.225998 81.820999 63.035995 82.011002 62.800995 82.011002 Z"/>
                <path id="path78" fill="#000000" stroke="none" d="M 63.580002 85.294006 C 63.580002 85.294006 61.561996 84.337997 61.561996 81.585999 C 61.561996 78.843002 62.925003 76.505997 64.845001 76.505997 C 66.410995 76.505997 67.048996 77.453003 67.048996 78.179001 C 67.048996 79.505997 65.774002 80.091003 65.774002 80.091003 C 65.774002 80.091003 66.322998 78.578003 64.897995 78.578003 C 63.578995 78.578003 62.516998 79.959 62.516998 81.710999 C 62.518005 83.781006 63.580002 85.294006 63.580002 85.294006 Z"/>
            </g>
            <g id="g34">
                <path id="path79" fill="#000000" stroke="none" d="M 80.466995 95.462006 L 80.466995 109.941986 L 79.121994 107.962006 C 79.121994 107.962006 79.794998 105.484009 79.794998 104.63501 C 79.794998 103.785004 77.848007 100.039001 77.848007 99.048004 C 77.847 97.979996 80.466995 95.462006 80.466995 95.462006 Z"/>
                <path id="path80" fill="#000000" stroke="none" d="M 77.563995 104.98999 L 80.466995 104.98999 L 80.466995 104.140015 L 77.563995 104.140015 C 77.328995 104.140015 77.139008 104.329987 77.139008 104.565002 L 77.139008 104.565002 C 77.139008 104.799011 77.328995 104.98999 77.563995 104.98999 Z"/>
                <path id="path81" fill="#000000" stroke="none" d="M 76.785004 108.27301 C 76.785004 108.27301 78.802994 107.316986 78.802994 104.565002 C 78.802994 101.822006 77.440002 99.485001 75.520004 99.485001 C 73.953995 99.485001 73.315994 100.432007 73.315994 101.158005 C 73.315994 102.485001 74.589996 103.069 74.589996 103.069 C 74.589996 103.069 74.041 101.556 75.466003 101.556 C 76.783997 101.556 77.845993 102.936005 77.845993 104.688995 C 77.847 106.759003 76.785004 108.27301 76.785004 108.27301 Z"/>
                <path id="path82" fill="#000000" stroke="none" d="M 80.466995 95.462006 L 80.466995 109.941986 L 81.811996 107.962006 C 81.811996 107.962006 81.139008 105.484009 81.139008 104.63501 C 81.139008 103.785004 83.085999 100.039001 83.085999 99.048004 C 83.085999 97.979996 80.466995 95.462006 80.466995 95.462006 Z"/>
                <path id="path83" fill="#000000" stroke="none" d="M 83.369003 104.98999 L 80.466003 104.98999 L 80.466003 104.140015 L 83.369003 104.140015 C 83.604004 104.140015 83.794006 104.329987 83.794006 104.565002 L 83.794006 104.565002 C 83.794006 104.799011 83.604004 104.98999 83.369003 104.98999 Z"/>
                <path id="path84" fill="#000000" stroke="none" d="M 84.147995 108.27301 C 84.147995 108.27301 82.130005 107.316986 82.130005 104.565002 C 82.130005 101.822006 83.492996 99.485001 85.412994 99.485001 C 86.979004 99.485001 87.617004 100.432007 87.617004 101.158005 C 87.617004 102.485001 86.343002 103.069 86.343002 103.069 C 86.343002 103.069 86.891998 101.556 85.466995 101.556 C 84.147995 101.556 83.085999 102.936005 83.085999 104.688995 C 83.085999 106.759003 84.147995 108.27301 84.147995 108.27301 Z"/>
            </g>
        </g>
        <path id="path85" fill="#000000" stroke="none" d="M 54.641006 128.335999 C 54.636993 128.322998 54.630997 128.304993 54.626999 128.290985 C 54.352005 127.619995 53.488007 127.079987 52.233002 126.651001 C 50.494995 129.550995 46.056 128.759003 45.869995 131.029999 C 46.016006 131.627014 47.242996 132.164001 49.205994 132.622009 C 51.274002 131.26001 54.671005 131.867004 54.714996 128.717987 C 54.707993 128.587006 54.686005 128.459015 54.641006 128.335999 Z"/>
        <path id="path86" fill="#000000" stroke="none" d="M 25.643997 126.971008 C 23.988998 127.466003 22.964005 128.057007 22.910995 128.722992 C 23.065002 133.437012 31.774994 131.101013 31.774994 136.040009 C 31.774994 136.040009 32.011002 132.756989 31.774994 130.372009 C 31.544998 128.049011 27.514999 129.213013 25.643997 126.971008 Z"/>
        <path id="path87" fill="#000000" stroke="none" d="M 83.539993 126.615997 C 81.998001 127.127014 81.039993 127.803986 80.964005 128.669006 C 81.026993 132.078003 85.050003 130.993011 86.994995 132.88501 C 88.744003 132.385986 89.789001 131.747986 89.826996 130.954987 C 89.776993 128.591003 85.371994 129.381012 83.539993 126.615997 Z"/>
        <path id="path88" fill="#000000" stroke="none" d="M 110.026001 126.971008 C 108.154999 129.212006 104.125 128.049011 103.894989 130.372009 C 103.658997 132.756989 103.894989 136.040009 103.894989 136.040009 C 103.894989 131.101013 112.605988 133.437012 112.759003 128.722992 C 112.705994 128.058014 111.679993 127.466003 110.026001 126.971008 Z"/>
    </g>
</svg>
